<?xml version="1.0" ?>
<!DOCTYPE svg  PUBLIC '-//W3C//DTD SVG 1.1//EN'  'http://www.w3.org/Graphics/SVG/1.1/DTD/svg11.dtd'>
<!-- Uploaded to: SVG Repo, www.svgrepo.com, Generator: SVG Repo Mixer Tools -->
<svg width="800px" height="800px" viewBox="0 0 512 512" enable-background="new 0 0 512 512" id="Layer_1" version="1.1" xml:space="preserve" xmlns="http://www.w3.org/2000/svg" xmlns:xlink="http://www.w3.org/1999/xlink">
<g>
<g>
<path d="M273.51,445.387h-200c-12.131,0-22-9.869-22-22v-314c0-12.131,9.869-22,22-22h41c5.523,0,10,4.478,10,10    v9.69c0,0.313,0.701,1.08,2,1.08h94c1.299,0,2-0.767,2-1.08v-9.69c0-5.522,4.477-10,10-10h41c12.131,0,22,9.869,22,22v147.101    c0,2.652-1.054,5.195-2.929,7.071l-53.279,53.278l25.869,25.877l13.268-13.269c2.86-2.859,7.161-3.714,10.898-2.168    c3.737,1.548,6.173,5.194,6.173,9.239v86.87C295.51,435.518,285.641,445.387,273.51,445.387z M73.51,107.387c-1.103,0-2,0.897-2,2    v314c0,1.103,0.897,2,2,2h200c1.103,0,2-0.897,2-2v-62.728l-3.269,3.27c-1.875,1.875-4.419,2.929-7.071,2.929c0,0,0,0-0.001,0    c-2.652,0-5.196-1.055-7.071-2.931l-40.009-40.019c-1.875-1.876-2.929-4.419-2.929-7.071s1.054-5.196,2.929-7.071l57.421-57.421    V109.387c0-1.103-0.897-2-2-2h-31.002c-0.174,11.481-9.975,20.771-21.998,20.771h-94c-12.023,0-21.824-9.289-21.998-20.771H73.51z    " fill="#444B54"/>
</g>
<g>
<path d="M220.512,128.152h-94c-12.131,0-22-9.456-22-21.08V87.693c0-11.624,9.869-21.08,22-21.08h94    c12.131,0,22,9.456,22,21.08v19.379C242.512,118.696,232.643,128.152,220.512,128.152z M126.512,86.613c-1.299,0-2,0.767-2,1.08    v19.379c0,0.313,0.701,1.08,2,1.08h94c1.299,0,2-0.767,2-1.08V87.693c0-0.313-0.701-1.08-2-1.08H126.512z" fill="#444B54"/>
</g>
<g>
<path d="M273.418,167.383H75.235c-12.158,0-22.049-9.869-22.049-22v-35.5c0-12.131,9.891-22,22.049-22h38.528    c5.523,0,10,4.478,10,10v9.189c0,0.313,0.718,1.08,2.05,1.08H220.2c1.331,0,2.049-0.767,2.049-1.08v-9.189c0-5.522,4.477-10,10-10    h41.168c12.158,0,22.05,9.869,22.05,22v35.5C295.468,157.514,285.576,167.383,273.418,167.383z M75.235,107.883    c-1.13,0-2.049,0.897-2.049,2v35.5c0,1.103,0.919,2,2.049,2h198.183c1.13,0,2.05-0.897,2.05-2v-35.5c0-1.103-0.919-2-2.05-2    h-31.185c-0.448,11.249-10.159,20.27-22.033,20.27h-94.388c-11.874,0-21.586-9.021-22.034-20.27H75.235z" fill="#444B54"/>
</g>
<g>
<path d="M106.71,241.298L106.71,241.298c-2.652,0-5.196-1.054-7.071-2.929l-15.186-15.187    c-3.905-3.905-3.905-10.237,0-14.143c3.905-3.904,10.237-3.903,14.142,0l8.115,8.115l32.661-32.659    c3.905-3.904,10.237-3.903,14.142,0c3.905,3.905,3.905,10.237,0,14.143l-39.731,39.73    C111.906,240.244,109.363,241.298,106.71,241.298z" fill="#444B54"/>
</g>
<g>
<path d="M104.225,328.77L104.225,328.77c-2.652,0-5.196-1.054-7.071-2.929l-15.186-15.187    c-3.905-3.905-3.905-10.237,0-14.143c3.905-3.904,10.237-3.903,14.142,0l8.115,8.115l32.661-32.659    c3.905-3.904,10.236-3.903,14.142,0c3.905,3.905,3.905,10.237,0,14.143l-39.731,39.73    C109.42,327.716,106.876,328.77,104.225,328.77z" fill="#444B54"/>
</g>
<g>
<path d="M265.17,366.857C265.17,366.857,265.169,366.857,265.17,366.857c-2.653,0-5.197-1.055-7.072-2.931    l-40.009-40.019c-1.875-1.876-2.929-4.419-2.929-7.071s1.054-5.196,2.929-7.071l167.22-167.22c3.905-3.904,10.237-3.904,14.142,0    l40.02,40.02c1.875,1.876,2.929,4.419,2.929,7.071s-1.054,5.196-2.929,7.071L272.241,363.929    C270.366,365.804,267.822,366.857,265.17,366.857z M239.302,316.837l25.87,25.877l153.086-153.077l-25.877-25.878L239.302,316.837    z" fill="#444B54"/>
</g>
<g>
<path d="M209.011,382.997c-2.616,0-5.171-1.027-7.073-2.93c-2.572-2.573-3.544-6.34-2.538-9.835l16.147-56.151    c0.976-3.404,3.68-6.039,7.109-6.926c3.427-0.887,7.07,0.105,9.575,2.61l40.011,40.022c2.503,2.504,3.496,6.144,2.61,9.571    s-3.518,6.132-6.92,7.109l-56.16,16.14C210.861,382.87,209.932,382.997,209.011,382.997z M230.087,335.907l-6.47,22.486    l22.489-6.463L230.087,335.907z" fill="#444B54"/>
</g>
<g>
<path d="M432.408,199.616c-2.56,0-5.118-0.977-7.071-2.929l-40.009-40.01c-3.905-3.905-3.905-10.237,0-14.143    l18.082-18.082c1.875-1.875,4.419-2.929,7.071-2.929s5.196,1.054,7.071,2.929l40.01,40.01c1.875,1.876,2.929,4.419,2.929,7.071    s-1.054,5.196-2.929,7.071l-18.083,18.082C437.526,198.64,434.967,199.616,432.408,199.616z M406.541,149.606l25.867,25.868    l3.94-3.94l-25.868-25.867L406.541,149.606z" fill="#444B54"/>
</g>
<g>
<path d="M259.982,221.433h-85.655c-5.523,0-10-4.478-10-10s4.477-10,10-10h85.655c5.523,0,10,4.478,10,10    S265.505,221.433,259.982,221.433z" fill="#444B54"/>
</g>
<g>
<path d="M237,314.997h-62.67c-5.523,0-10-4.478-10-10s4.477-10,10-10H237c5.523,0,10,4.478,10,10    S242.523,314.997,237,314.997z" fill="#444B54"/>
</g>
<g>
<path d="M111.482,382.998H91.524c-5.523,0-10-4.478-10-10s4.477-10,10-10h19.958c5.523,0,10,4.478,10,10    S117.005,382.998,111.482,382.998z" fill="#444B54"/>
</g>
<g>
<path d="M209.01,382.997h-44.15c-5.523,0-10-4.478-10-10s4.477-10,10-10h44.15c5.523,0,10,4.478,10,10    S214.533,382.997,209.01,382.997z" fill="#444B54"/>
</g>
<g>
<path d="M237,304.997l-11.84,11.84l14.12,14.12l25.89,25.9l20.34-20.341v86.87c0,6.63-5.37,12-12,12h-200    c-6.63,0-12-5.37-12-12v-314c0-6.63,5.37-12,12-12h41v9.69c0,6.12,5.37,11.08,12,11.08h94c6.63,0,12-4.96,12-11.08v-9.69h41    c6.63,0,12,5.37,12,12v147.101L237,304.997z" fill="#D9DCE1"/>
<path d="M273.51,445.387h-200c-12.131,0-22-9.869-22-22v-314c0-12.131,9.869-22,22-22h41c5.523,0,10,4.478,10,10    v9.69c0,0.313,0.701,1.08,2,1.08h94c1.299,0,2-0.767,2-1.08v-9.69c0-5.522,4.477-10,10-10h41c12.131,0,22,9.869,22,22v147.101    c0,2.652-1.054,5.195-2.929,7.071l-53.279,53.278l25.869,25.877l13.268-13.269c2.86-2.859,7.161-3.714,10.898-2.168    c3.737,1.548,6.173,5.194,6.173,9.239v86.87C295.51,435.518,285.641,445.387,273.51,445.387z M73.51,107.387c-1.103,0-2,0.897-2,2    v314c0,1.103,0.897,2,2,2h200c1.103,0,2-0.897,2-2v-62.728l-3.269,3.27c-1.875,1.875-4.419,2.929-7.071,2.929c0,0,0,0-0.001,0    c-2.652,0-5.196-1.055-7.071-2.931l-40.009-40.019c-1.875-1.876-2.929-4.419-2.929-7.071s1.054-5.196,2.929-7.071l57.421-57.421    V109.387c0-1.103-0.897-2-2-2h-31.002c-0.174,11.481-9.975,20.771-21.998,20.771h-94c-12.023,0-21.824-9.289-21.998-20.771H73.51z    " fill="#444B54"/>
</g>
<g>
<path d="M232.512,87.693v19.379c0,6.121-5.37,11.08-12,11.08h-94c-6.63,0-12-4.959-12-11.08V87.693    c0-6.121,5.37-11.08,12-11.08h94C227.142,76.613,232.512,81.572,232.512,87.693z" fill="#D9DCE1"/>
<path d="M220.512,128.152h-94c-12.131,0-22-9.456-22-21.08V87.693c0-11.624,9.869-21.08,22-21.08h94    c12.131,0,22,9.456,22,21.08v19.379C242.512,118.696,232.643,128.152,220.512,128.152z M126.512,86.613c-1.299,0-2,0.767-2,1.08    v19.379c0,0.313,0.701,1.08,2,1.08h94c1.299,0,2-0.767,2-1.08V87.693c0-0.313-0.701-1.08-2-1.08H126.512z" fill="#444B54"/>
</g>
<g>
<path d="M285.468,109.883v35.5c0,6.63-5.392,12-12.05,12H75.235c-6.647,0-12.049-5.37-12.049-12v-35.5    c0-6.63,5.402-12,12.049-12h38.528v9.189c0,6.121,5.393,11.08,12.05,11.08H220.2c6.657,0,12.049-4.959,12.049-11.08v-9.189h41.168    C280.076,97.883,285.468,103.253,285.468,109.883z" fill="#3C74BA"/>
<path d="M273.418,167.383H75.235c-12.158,0-22.049-9.869-22.049-22v-35.5c0-12.131,9.891-22,22.049-22h38.528    c5.523,0,10,4.478,10,10v9.189c0,0.313,0.718,1.08,2.05,1.08H220.2c1.331,0,2.049-0.767,2.049-1.08v-9.189c0-5.522,4.477-10,10-10    h41.168c12.158,0,22.05,9.869,22.05,22v35.5C295.468,157.514,285.576,167.383,273.418,167.383z M75.235,107.883    c-1.13,0-2.049,0.897-2.049,2v35.5c0,1.103,0.919,2,2.049,2h198.183c1.13,0,2.05-0.897,2.05-2v-35.5c0-1.103-0.919-2-2.05-2    h-31.185c-0.448,11.249-10.159,20.27-22.033,20.27h-94.388c-11.874,0-21.586-9.021-22.034-20.27H75.235z" fill="#444B54"/>
</g>
<g>
<path d="M106.71,241.298L106.71,241.298c-2.652,0-5.196-1.054-7.071-2.929l-15.186-15.187    c-3.905-3.905-3.905-10.237,0-14.143c3.905-3.904,10.237-3.903,14.142,0l8.115,8.115l32.661-32.659    c3.905-3.904,10.237-3.903,14.142,0c3.905,3.905,3.905,10.237,0,14.143l-39.731,39.73    C111.906,240.244,109.363,241.298,106.71,241.298z" fill="#444B54"/>
</g>
<g>
<path d="M104.225,328.77L104.225,328.77c-2.652,0-5.196-1.054-7.071-2.929l-15.186-15.187    c-3.905-3.905-3.905-10.237,0-14.143c3.905-3.904,10.237-3.903,14.142,0l8.115,8.115l32.661-32.659    c3.905-3.904,10.236-3.903,14.142,0c3.905,3.905,3.905,10.237,0,14.143l-39.731,39.73    C109.42,327.716,106.876,328.77,104.225,328.77z" fill="#444B54"/>
</g>
<g>
<polygon fill="#3C74BA" points="432.4,189.637 285.51,336.517 265.17,356.857 239.28,330.957 225.16,316.837 237,304.997     392.38,149.617   "/>
<path d="M265.17,366.857C265.17,366.857,265.169,366.857,265.17,366.857c-2.653,0-5.197-1.055-7.072-2.931    l-40.009-40.019c-1.875-1.876-2.929-4.419-2.929-7.071s1.054-5.196,2.929-7.071l167.22-167.22c3.905-3.904,10.237-3.904,14.142,0    l40.02,40.02c1.875,1.876,2.929,4.419,2.929,7.071s-1.054,5.196-2.929,7.071L272.241,363.929    C270.366,365.804,267.822,366.857,265.17,366.857z M239.302,316.837l25.87,25.877l153.086-153.077l-25.877-25.878L239.302,316.837    z" fill="#444B54"/>
</g>
<g>
<polygon fill="#3C74BA" points="265.17,356.857 239.28,364.297 209.01,372.997 222.64,325.627 225.16,316.837 239.28,330.957       "/>
<path d="M209.011,382.997c-2.616,0-5.171-1.027-7.073-2.93c-2.572-2.573-3.544-6.34-2.538-9.835l16.147-56.151    c0.976-3.404,3.68-6.039,7.109-6.926c3.427-0.887,7.07,0.105,9.575,2.61l40.011,40.022c2.503,2.504,3.496,6.144,2.61,9.571    s-3.518,6.132-6.92,7.109l-56.16,16.14C210.861,382.87,209.932,382.997,209.011,382.997z M230.087,335.907l-6.47,22.486    l22.489-6.463L230.087,335.907z" fill="#444B54"/>
</g>
<g>
<path d="M432.408,199.616c-2.56,0-5.118-0.977-7.071-2.929l-40.009-40.01c-3.905-3.905-3.905-10.237,0-14.143    l18.082-18.082c1.875-1.875,4.419-2.929,7.071-2.929s5.196,1.054,7.071,2.929l40.01,40.01c1.875,1.876,2.929,4.419,2.929,7.071    s-1.054,5.196-2.929,7.071l-18.083,18.082C437.526,198.64,434.967,199.616,432.408,199.616z M406.541,149.606l25.867,25.868    l3.94-3.94l-25.868-25.867L406.541,149.606z" fill="#444B54"/>
</g>
<g>
<path d="M259.982,221.433h-85.655c-5.523,0-10-4.478-10-10s4.477-10,10-10h85.655c5.523,0,10,4.478,10,10    S265.505,221.433,259.982,221.433z" fill="#444B54"/>
</g>
<g>
<path d="M237,314.997h-62.67c-5.523,0-10-4.478-10-10s4.477-10,10-10H237c5.523,0,10,4.478,10,10    S242.523,314.997,237,314.997z" fill="#444B54"/>
</g>
<g>
<path d="M111.482,382.998H91.524c-5.523,0-10-4.478-10-10s4.477-10,10-10h19.958c5.523,0,10,4.478,10,10    S117.005,382.998,111.482,382.998z" fill="#444B54"/>
</g>
<g>
<path d="M209.01,382.997h-44.15c-5.523,0-10-4.478-10-10s4.477-10,10-10h44.15c5.523,0,10,4.478,10,10    S214.533,382.997,209.01,382.997z" fill="#444B54"/>
</g>
</g>
</svg>