<?xml version="1.0" encoding="iso-8859-1"?>
<!-- Uploaded to: SVG Repo, www.svgrepo.com, Generator: SVG Repo Mixer Tools -->
<svg height="800px" width="800px" version="1.1" id="Layer_1" xmlns="http://www.w3.org/2000/svg" xmlns:xlink="http://www.w3.org/1999/xlink" 
	 viewBox="0 0 512 512" xml:space="preserve">
<path style="fill:#FFC25D;" d="M393.401,278.944l31.011-20.881l-31.384-60.057l-0.171-37.135
	C392.465,75.929,323.287,7.387,238.344,7.778C153.401,8.169,84.859,77.347,85.251,162.29c0.233,50.628,24.908,95.427,62.787,123.279
	v142.085l170.572,72.584v-156.38l74.79,27.115V278.944z"/>
<path style="fill:#FFDE90;" d="M424.417,258.068l-31.014,20.873v92.036l-74.793-27.115l-178.878-64.859
	c-33.14-28.049-54.272-69.888-54.479-116.715C84.859,77.344,153.399,8.171,238.343,7.777c84.944-0.394,154.117,68.146,154.51,153.09
	l0.176,37.142L424.417,258.068z"/>
<circle style="fill:#FFFFFF;" cx="234.094" cy="150.321" r="93.322"/>
<path d="M234.093,251.415c-55.747,0-101.099-45.353-101.099-101.099S178.346,49.217,234.093,49.217
	c55.746,0,101.098,45.353,101.098,101.099C335.192,206.062,289.838,251.415,234.093,251.415z M234.093,64.77
	c-47.17,0-85.545,38.375-85.545,85.545s38.375,85.545,85.545,85.545s85.544-38.375,85.544-85.545
	C319.638,103.147,281.263,64.77,234.093,64.77z"/>
<path d="M211.759,98.011c0,2.281-0.346,4.381-1.037,6.299c-0.693,1.918-1.652,3.577-2.877,4.977c-1.228,1.4-2.679,2.489-4.355,3.266
	c-1.677,0.778-3.5,1.167-5.469,1.167c-1.97,0-3.794-0.389-5.47-1.167c-1.677-0.778-3.129-1.866-4.355-3.266
	c-1.228-1.4-2.186-3.059-2.876-4.977c-0.693-1.918-1.037-4.018-1.037-6.299c0-2.281,0.344-4.381,1.037-6.299
	c0.691-1.918,1.65-3.577,2.876-4.977c1.227-1.4,2.678-2.497,4.355-3.292c1.676-0.794,3.5-1.192,5.47-1.192
	c1.969,0,3.792,0.398,5.469,1.192c1.676,0.795,3.128,1.892,4.355,3.292c1.227,1.4,2.185,3.059,2.877,4.977
	C211.412,93.63,211.759,95.729,211.759,98.011z M201.803,98.011c0-2.004-0.355-3.629-1.062-4.873
	c-0.709-1.244-1.617-1.866-2.722-1.866c-1.176,0-2.118,0.622-2.827,1.866c-0.709,1.244-1.062,2.869-1.062,4.873
	c0,2.005,0.354,3.621,1.062,4.848c0.708,1.228,1.651,1.841,2.827,1.841c1.105,0,2.013-0.613,2.722-1.841
	C201.449,101.632,201.803,100.016,201.803,98.011z"/>
<path d="M246.235,104.388v8.814h-24.004v-8.814h7.362V94.07c-0.311,0.415-0.795,0.822-1.451,1.218
	c-0.657,0.397-1.393,0.769-2.203,1.115c-0.813,0.346-1.633,0.622-2.463,0.83c-0.831,0.207-1.574,0.311-2.229,0.311v-9.021
	c0.484,0,1.157-0.181,2.022-0.544c0.864-0.363,1.727-0.794,2.592-1.296c0.864-0.501,1.65-1.037,2.358-1.607
	c0.709-0.57,1.167-1.063,1.374-1.478h10.058v20.79H246.235z"/>
<path d="M279.779,104.388v8.814h-24.005v-8.814h7.363V94.07c-0.312,0.415-0.796,0.822-1.452,1.218
	c-0.657,0.397-1.392,0.769-2.203,1.115c-0.812,0.346-1.633,0.622-2.463,0.83c-0.83,0.207-1.574,0.311-2.229,0.311v-9.021
	c0.484,0,1.158-0.181,2.022-0.544c0.864-0.363,1.729-0.794,2.592-1.296c0.864-0.501,1.651-1.037,2.359-1.607
	c0.708-0.57,1.167-1.063,1.374-1.478h10.057v20.79H279.779z"/>
<path d="M209.217,208.079v8.814h-24.005v-8.814h7.363v-10.317c-0.312,0.415-0.796,0.821-1.452,1.218
	c-0.657,0.397-1.392,0.769-2.203,1.115c-0.812,0.345-1.633,0.622-2.463,0.83c-0.83,0.207-1.574,0.311-2.229,0.311v-9.021
	c0.484,0,1.158-0.181,2.022-0.544c0.864-0.363,1.729-0.794,2.592-1.296c0.864-0.501,1.651-1.037,2.359-1.607
	c0.708-0.57,1.167-1.063,1.374-1.478h10.057v20.79L209.217,208.079L209.217,208.079z"/>
<path d="M245.302,201.702c0,2.281-0.345,4.381-1.037,6.299c-0.692,1.918-1.651,3.577-2.876,4.977
	c-1.228,1.4-2.679,2.489-4.355,3.266c-1.677,0.778-3.5,1.167-5.47,1.167c-1.969,0-3.793-0.389-5.469-1.167
	c-1.677-0.778-3.129-1.866-4.355-3.266c-1.228-1.4-2.186-3.059-2.877-4.977c-0.692-1.918-1.037-4.018-1.037-6.299
	s0.345-4.381,1.037-6.299c0.692-1.918,1.651-3.577,2.877-4.977c1.227-1.4,2.678-2.497,4.355-3.292
	c1.676-0.794,3.5-1.192,5.469-1.192c1.97,0,3.793,0.398,5.47,1.192c1.676,0.795,3.128,1.892,4.355,3.292
	c1.227,1.4,2.185,3.059,2.876,4.977C244.956,197.321,245.302,199.421,245.302,201.702z M235.348,201.702
	c0-2.004-0.356-3.629-1.063-4.873c-0.709-1.244-1.617-1.866-2.722-1.866c-1.176,0-2.117,0.622-2.826,1.866
	c-0.709,1.244-1.063,2.869-1.063,4.873c0,2.005,0.355,3.621,1.063,4.848c0.708,1.228,1.65,1.841,2.826,1.841
	c1.105,0,2.013-0.613,2.722-1.841C234.993,205.323,235.348,203.707,235.348,201.702z"/>
<path d="M279.779,208.079v8.814h-24.005v-8.814h7.363v-10.317c-0.312,0.415-0.796,0.821-1.452,1.218
	c-0.657,0.397-1.392,0.769-2.203,1.115c-0.812,0.345-1.633,0.622-2.463,0.83s-1.574,0.311-2.229,0.311v-9.021
	c0.484,0,1.158-0.181,2.022-0.544c0.864-0.363,1.729-0.794,2.592-1.296c0.864-0.501,1.651-1.037,2.359-1.607
	c0.708-0.57,1.167-1.063,1.374-1.478h10.057v20.79L279.779,208.079L279.779,208.079z"/>
<path d="M192.938,156.233v8.814h-24.005v-8.814h7.363v-10.317c-0.312,0.415-0.796,0.821-1.452,1.218
	c-0.657,0.397-1.392,0.769-2.203,1.115c-0.812,0.345-1.633,0.622-2.463,0.83c-0.83,0.207-1.574,0.311-2.229,0.311v-9.021
	c0.484,0,1.158-0.181,2.022-0.544c0.864-0.363,1.729-0.794,2.592-1.296c0.864-0.501,1.651-1.037,2.359-1.607
	c0.708-0.57,1.167-1.063,1.374-1.478h10.057v20.79L192.938,156.233L192.938,156.233z"/>
<path d="M229.022,149.856c0,2.281-0.345,4.381-1.037,6.299c-0.692,1.918-1.651,3.577-2.876,4.977
	c-1.228,1.4-2.679,2.489-4.355,3.266c-1.677,0.778-3.5,1.167-5.47,1.167c-1.969,0-3.793-0.389-5.469-1.167
	c-1.677-0.778-3.129-1.866-4.355-3.266c-1.228-1.4-2.186-3.059-2.877-4.977c-0.692-1.918-1.037-4.018-1.037-6.299
	s0.345-4.381,1.037-6.299c0.692-1.918,1.651-3.577,2.877-4.977c1.227-1.4,2.678-2.497,4.355-3.292
	c1.676-0.794,3.5-1.192,5.469-1.192c1.97,0,3.793,0.398,5.47,1.192c1.676,0.795,3.128,1.892,4.355,3.292
	c1.227,1.4,2.185,3.059,2.876,4.977C228.677,145.475,229.022,147.575,229.022,149.856z M219.068,149.856
	c0-2.004-0.356-3.629-1.063-4.873c-0.709-1.244-1.617-1.866-2.722-1.866c-1.176,0-2.117,0.622-2.826,1.866
	c-0.709,1.244-1.063,2.869-1.063,4.873c0,2.005,0.355,3.621,1.063,4.848c0.708,1.228,1.65,1.841,2.826,1.841
	c1.105,0,2.013-0.613,2.722-1.841C218.713,153.477,219.068,151.862,219.068,149.856z"/>
<path d="M263.5,156.233v8.814h-24.005v-8.814h7.363v-10.317c-0.312,0.415-0.796,0.821-1.452,1.218
	c-0.657,0.397-1.392,0.769-2.203,1.115c-0.812,0.345-1.633,0.622-2.463,0.83c-0.83,0.207-1.574,0.311-2.229,0.311v-9.021
	c0.484,0,1.158-0.181,2.022-0.544c0.864-0.363,1.729-0.794,2.592-1.296c0.864-0.501,1.651-1.037,2.359-1.607
	c0.708-0.57,1.167-1.063,1.374-1.478h10.057v20.79L263.5,156.233L263.5,156.233z"/>
<path d="M299.584,149.856c0,2.281-0.346,4.381-1.037,6.299c-0.693,1.918-1.652,3.577-2.877,4.977
	c-1.228,1.4-2.679,2.489-4.355,3.266c-1.677,0.778-3.5,1.167-5.469,1.167c-1.97,0-3.794-0.389-5.47-1.167
	c-1.677-0.778-3.129-1.866-4.355-3.266c-1.228-1.4-2.186-3.059-2.876-4.977c-0.693-1.918-1.037-4.018-1.037-6.299
	s0.344-4.381,1.037-6.299c0.691-1.918,1.65-3.577,2.876-4.977c1.227-1.4,2.678-2.497,4.355-3.292c1.676-0.794,3.5-1.192,5.47-1.192
	c1.969,0,3.792,0.398,5.469,1.192c1.676,0.795,3.128,1.892,4.355,3.292c1.227,1.4,2.185,3.059,2.877,4.977
	C299.238,145.475,299.584,147.575,299.584,149.856z M289.629,149.856c0-2.004-0.355-3.629-1.062-4.873
	c-0.709-1.244-1.617-1.866-2.722-1.866c-1.176,0-2.118,0.622-2.827,1.866c-0.709,1.244-1.062,2.869-1.062,4.873
	c0,2.005,0.354,3.621,1.062,4.848c0.708,1.228,1.651,1.841,2.827,1.841c1.105,0,2.013-0.613,2.722-1.841
	C289.274,153.477,289.629,151.862,289.629,149.856z"/>
<path d="M326.387,512l-186.126-79.203V289.443c-18.487-14.315-33.87-32.697-44.633-53.381
	c-11.927-22.92-18.035-47.727-18.154-73.735C77.064,73.231,149.213,0.412,238.309,0.002c43.16-0.19,83.814,16.421,114.472,46.799
	c30.659,30.377,47.653,70.876,47.853,114.036l0.162,35.245l33.732,64.547l-33.349,22.456v98.982l-224.683-81.463l5.302-14.623
	l203.827,73.902v-85.077l28.673-19.307l-29.038-55.565l-0.18-39.025C384.71,80.62,319.268,15.553,239.065,15.553
	c-0.231,0-0.454,0.001-0.684,0.002c-39.005,0.18-75.606,15.538-103.059,43.247c-27.453,27.707-42.474,64.448-42.294,103.453
	c0.108,23.508,5.625,45.925,16.398,66.627c10.281,19.756,25.226,37.192,43.22,50.423l3.17,2.331v140.878l155.019,65.965V374.965
	h15.554V512z"/>
</svg>