<?xml version="1.0" encoding="iso-8859-1"?>
<!-- Uploaded to: SVG Repo, www.svgrepo.com, Generator: SVG Repo Mixer Tools -->
<svg version="1.1" id="Layer_1" xmlns="http://www.w3.org/2000/svg" xmlns:xlink="http://www.w3.org/1999/xlink" 
	 viewBox="0 0 512 512" xml:space="preserve">
<rect x="150.433" y="409.072" style="fill:#546A79;" width="52.784" height="42.227"/>
<rect x="55.423" y="7.918" style="fill:#8C6239;" width="52.784" height="496.165"/>
<path style="fill:#A67C52;" d="M456.577,18.474v475.052c0,5.806-4.751,10.557-10.557,10.557H108.206V7.918h337.814
	C451.827,7.918,456.577,12.668,456.577,18.474z M393.237,176.825c0-61.018-49.3-110.529-110.318-110.845c-0.211,0-0.317,0-0.528,0
	c-61.229,0-110.845,49.616-110.845,110.845c0,61.018,49.3,110.529,110.318,110.845c0.211,0,0.317,0,0.528,0
	C343.621,287.67,393.237,238.054,393.237,176.825z M203.217,451.299v-42.227h-52.784v42.227H203.217z"/>
<path style="fill:#FFD248;" d="M282.92,65.979c-0.211,0-0.317,0-0.528,0c-61.229,0-110.845,49.616-110.845,110.845
	c0,61.018,49.3,110.529,110.318,110.845c0.211,0,0.317,0,0.528,0c61.229,0,110.845-49.616,110.845-110.845
	C393.237,115.807,343.937,66.296,282.92,65.979z"/>
<path d="M446.021,0H47.505v512h398.515c10.186,0,18.474-8.288,18.474-18.474V18.474C464.495,8.288,456.207,0,446.021,0z
	 M63.34,15.835h36.948v480.33H63.34V15.835z M448.66,493.526c0,1.43-1.209,2.639-2.639,2.639H116.124V15.835h329.897
	c1.43,0,2.639,1.209,2.639,2.639V493.526z"/>
<rect x="372.124" y="401.155" width="52.784" height="15.835"/>
<rect x="319.34" y="443.381" width="105.567" height="15.835"/>
<path d="M401.155,176.825c0-31.616-12.282-61.366-34.584-83.772c-22.297-22.4-51.991-34.828-83.61-34.991h-0.569
	c-65.486,0-118.763,53.277-118.763,118.763c0,31.616,12.282,61.366,34.584,83.772c22.297,22.4,51.991,34.828,83.651,34.991h0.528
	C347.878,295.588,401.155,242.311,401.155,176.825z M282.392,279.753h-0.487c-56.487-0.292-102.441-46.466-102.441-102.928
	c0-56.755,46.173-102.928,102.928-102.928h0.505c56.477,0.304,102.423,46.473,102.423,102.928
	C385.32,233.58,339.147,279.753,282.392,279.753z"/>
<path d="M303.505,116.124h-13.196V92.371h-15.835v23.753h-13.196c-10.186,0-18.474,8.288-18.474,18.474v31.67
	c0,10.186,8.288,18.474,18.474,18.474h42.227c1.43,0,2.639,1.209,2.639,2.639v31.67c0,1.43-1.209,2.639-2.639,2.639h-42.227
	c-1.43,0-2.639-1.209-2.639-2.639v-15.835h-15.835v15.835c0,10.186,8.288,18.474,18.474,18.474h13.196v23.753h15.835v-23.753h13.196
	c10.186,0,18.474-8.288,18.474-18.474v-31.67c0-10.186-8.288-18.474-18.474-18.474h-42.227c-1.43,0-2.639-1.209-2.639-2.639v-31.67
	c0-1.43,1.209-2.639,2.639-2.639h42.227c1.43,0,2.639,1.209,2.639,2.639v15.835h15.835v-15.835
	C321.979,124.412,313.691,116.124,303.505,116.124z"/>
<path d="M142.515,459.217h68.619v-58.062h-68.619V459.217z M158.351,416.99h36.948v26.392h-36.948V416.99z"/>
</svg>