<?xml version="1.0" encoding="utf-8"?>
<!-- Uploaded to: SVG Repo, www.svgrepo.com, Generator: SVG Repo Mixer Tools -->
<svg width="800px" height="800px" viewBox="0 0 1024 1024" class="icon"  version="1.1" xmlns="http://www.w3.org/2000/svg"><path d="M512.801252 512m-439.086072 0a439.086072 439.086072 0 1 0 878.172144 0 439.086072 439.086072 0 1 0-878.172144 0Z" fill="#9DE8F7" /><path d="M528.826291 531.230047zM363.768388 704.300469l33.652582-4.807511 16.025039 30.447574 100.957747-181.082942H456.713615z" fill="#F2385A" /><path d="M993.552426 404.632238c0-62.497653-30.447574-113.777778-65.702661-113.777778H624.976526c16.025039 25.640063 25.640063 64.100156 25.640062 112.175274s-9.615023 88.137715-25.640062 113.777778h301.270735c36.85759 0 67.305164-49.677621 67.305165-112.175274z" fill="#E8E8E8" /><path d="M556.068858 550.460094l100.957746 179.480438 16.025039-30.447574 35.255086 4.807511-94.547731-153.840375zM576.901408 516.807512c17.627543 0 41.665102-44.87011 41.665102-113.777778s-24.037559-113.777778-41.665102-113.777778h-46.472613c10.800876 13.124507 19.678748 29.261721 26.056714 47.610391 6.858717 19.758873 10.800876 42.065728 10.800876 66.167387 0 12.836056-1.201878 25.239437-3.269108 37.113991-5.416463 31.088576-17.355117 58.106792-33.588482 76.663787H576.901408z" fill="#F2385A" /><path d="M163.455399 404.632238c0-62.016901-29.998873-112.928451-64.901408-113.697653-0.272426 0-0.528826-0.080125-0.801252-0.080125-35.255086 0-65.70266 52.882629-65.702661 113.777778 0 54.116557 24.053584 100.541095 54.148607 111.357997 0.320501 0.112175 0.657027 0.1923 0.993553 0.304475 1.698654 0.560876 3.397308 1.057653 5.111987 1.394179 0.689077 0.1282 1.394178 0.176275 2.09928 0.272426 1.121753 0.16025 2.22748 0.400626 3.349234 0.448701 0.272426 0 0.528826-0.0641 0.785227-0.080126a34.848451 34.848451 0 0 0 4.487011-0.416651c0.544851-0.080125 1.073678-0.112175 1.618528-0.208325C136.885884 511.375023 163.455399 461.505102 163.455399 404.632238z" fill="#E8E8E8" /><path d="M533.633803 403.029734c0-35.094836-9.598998-66.648138-24.261909-87.576839-0.336526-0.480751-0.705102-0.913427-1.057653-1.378153a88.139718 88.139718 0 0 0-2.708232-3.509484c-10.800876-13.348858-23.845258-21.313302-37.674867-21.313302H160.250391c0.416651 0.512801 0.785227 1.089703 1.185853 1.602504 21.729953 27.194491 35.671737 66.568013 35.671737 112.175274 0 0.272426-0.03205 0.528826-0.03205 0.801252-0.16025 46.152113-14.518685 87.480689-36.82554 112.976526H467.931142c35.255086 0 65.70266-51.280125 65.702661-113.777778z" fill="#E8E8E8" /><path d="M926.247261 258.804382H97.752739C43.267606 258.804382 0 322.904538 0 404.632238s43.267606 145.827856 97.752739 145.827856h320.500782L299.668232 749.170579l80.125195-12.820031 32.050078 62.497652 123.392802-222.748044L658.629108 797.245696l32.050078-62.497652 80.125196 12.820031-118.58529-198.710485h274.028169c54.485133 0 97.752739-64.100156 97.752739-145.827856s-41.665102-144.225352-97.752739-144.225352zM104.659531 517.704914c-0.528826 0.112175-1.073678 0.1282-1.618529 0.208325a35.114867 35.114867 0 0 1-4.487011 0.416651c-0.272426 0-0.528826 0.080125-0.785227 0.080126-1.121753-0.048075-2.22748-0.288451-3.349233-0.448701-0.705102-0.09615-1.394178-0.144225-2.099281-0.272426a40.893897 40.893897 0 0 1-5.111987-1.394179c-0.336526-0.112175-0.657027-0.1923-0.993553-0.304475C56.103662 505.173333 32.050078 458.748795 32.050078 404.632238c0-60.895149 30.447574-113.777778 65.702661-113.777778 0.272426 0 0.528826 0.0641 0.801252 0.080125 34.902535 0.769202 64.901408 51.680751 64.901408 113.697653 0 56.872864-26.569515 106.742786-58.795868 113.072676zM161.436244 516.807512H160.250391c22.306854-25.495837 36.66529-66.824413 36.82554-112.976526 0-0.272426 0.03205-0.528826 0.03205-0.801252 0-45.607261-13.941784-84.980782-35.671737-112.175274-0.416651-0.512801-0.769202-1.089703-1.185853-1.602504h307.680751c13.829609 0 26.873991 7.964444 37.674867 21.313302 0.913427 1.137778 1.826854 2.291581 2.708232 3.509484 0.352551 0.480751 0.721127 0.897402 1.057653 1.378153 14.662911 20.928701 24.261909 52.482003 24.261909 87.576839 0 62.497653-30.447574 113.777778-65.702661 113.777778H161.436244zM413.446009 729.940532l-16.025039-30.447574-33.652582 4.807511L456.713615 548.85759h57.690141l-100.957747 181.082942zM534.57928 516.807512H530.428795c16.233365-18.556995 28.188044-45.575211 33.588482-76.663787 2.06723-11.858529 3.269108-24.277934 3.269108-37.113991 0-24.101659-3.94216-46.408513-10.800876-66.167387-6.377966-18.34867-15.255837-34.501909-26.056714-47.610391H576.901408c17.627543 0 41.665102 44.87011 41.665102 113.777778S594.528951 516.807512 576.901408 516.807512h-42.322128z m173.727449 187.492957l-35.255086-4.807511-16.025039 30.447574-100.957746-179.480438h57.69014l94.547731 153.840375zM926.247261 516.807512H624.976526c16.025039-25.640063 25.640063-65.70266 25.640062-113.777778s-9.615023-86.535211-25.640062-112.175274h302.873239c35.255086 0 65.70266 51.280125 65.702661 113.777778s-30.447574 112.175274-67.305165 112.175274z" fill="" /></svg>