<svg width="300" height="300" viewBox="0 0 300 300" fill="none" xmlns="http://www.w3.org/2000/svg">
<path d="M285 0H15C11.0218 0 7.20644 1.58035 4.3934 4.3934C1.58035 7.20644 0 11.0218 0 15V285C0 288.978 1.58035 292.794 4.3934 295.607C7.20644 298.42 11.0218 300 15 300H285C288.978 300 292.794 298.42 295.607 295.607C298.42 292.794 300 288.978 300 285V15C300 11.0218 298.42 7.20644 295.607 4.3934C292.794 1.58035 288.978 0 285 0V0ZM290 285C290 286.326 289.473 287.598 288.536 288.536C287.598 289.473 286.326 290 285 290H15C13.6739 290 12.4021 289.473 11.4645 288.536C10.5268 287.598 10 286.326 10 285V50H290V285ZM10 40V15C10 13.6739 10.5268 12.4021 11.4645 11.4645C12.4021 10.5268 13.6739 10 15 10H285C286.326 10 287.598 10.5268 288.536 11.4645C289.473 12.4021 290 13.6739 290 15V40H10Z" fill="#E0E07D"/>
<path d="M125.467 128.031H142.43V218.646C142.43 230.893 138.738 240.473 131.355 247.387C124.031 254.301 114.246 257.758 102 257.758C89.2852 257.758 79.3828 254.506 72.293 248.002C65.2031 241.498 61.6582 232.387 61.6582 220.668H78.5332C78.5332 227.992 80.5254 233.705 84.5098 237.807C88.5527 241.908 94.3828 243.959 102 243.959C108.973 243.959 114.598 241.762 118.875 237.367C123.211 232.973 125.408 226.82 125.467 218.91V128.031Z" fill="#E0E07D"/>
<path d="M208.875 198.959C194.402 194.799 183.855 189.701 177.234 183.666C170.672 177.572 167.391 170.072 167.391 161.166C167.391 151.088 171.404 142.768 179.432 136.205C187.518 129.584 198.006 126.273 210.896 126.273C219.686 126.273 227.508 127.973 234.363 131.371C241.277 134.77 246.609 139.457 250.359 145.434C254.168 151.41 256.072 157.943 256.072 165.033H239.109C239.109 157.299 236.648 151.234 231.727 146.84C226.805 142.387 219.861 140.16 210.896 140.16C202.576 140.16 196.072 142.006 191.385 145.697C186.756 149.33 184.441 154.398 184.441 160.902C184.441 166.117 186.639 170.541 191.033 174.174C195.486 177.748 203.016 181.029 213.621 184.018C224.285 187.006 232.605 190.316 238.582 193.949C244.617 197.523 249.07 201.713 251.941 206.518C254.871 211.322 256.336 216.977 256.336 223.48C256.336 233.852 252.293 242.172 244.207 248.441C236.121 254.652 225.311 257.758 211.775 257.758C202.986 257.758 194.783 256.088 187.166 252.748C179.549 249.35 173.66 244.721 169.5 238.861C165.398 233.002 163.348 226.352 163.348 218.91H180.311C180.311 226.645 183.152 232.768 188.836 237.279C194.578 241.732 202.225 243.959 211.775 243.959C220.682 243.959 227.508 242.143 232.254 238.51C237 234.877 239.373 229.926 239.373 223.656C239.373 217.387 237.176 212.553 232.781 209.154C228.387 205.697 220.418 202.299 208.875 198.959Z" fill="#E0E07D"/>
</svg>
