<svg width="99" height="99" viewBox="0 0 99 99" fill="none" xmlns="http://www.w3.org/2000/svg">
<path d="M93.9064 0H4.94244C3.63162 0 2.37449 0.52072 1.44761 1.44761C0.52072 2.37449 0 3.63162 0 4.94244V93.9064C0 95.2172 0.52072 96.4743 1.44761 97.4012C2.37449 98.3281 3.63162 98.8488 4.94244 98.8488H93.9064C95.2172 98.8488 96.4743 98.3281 97.4012 97.4012C98.3281 96.4743 98.8488 95.2172 98.8488 93.9064V4.94244C98.8488 3.63162 98.3281 2.37449 97.4012 1.44761C96.4743 0.52072 95.2172 0 93.9064 0V0ZM95.5538 93.9064C95.5538 94.3433 95.3803 94.7623 95.0713 95.0713C94.7623 95.3803 94.3433 95.5538 93.9064 95.5538H4.94244C4.5055 95.5538 4.08646 95.3803 3.7775 95.0713C3.46853 94.7623 3.29496 94.3433 3.29496 93.9064V16.4748H95.5538V93.9064ZM3.29496 13.1798V4.94244C3.29496 4.5055 3.46853 4.08646 3.7775 3.7775C4.08646 3.46853 4.5055 3.29496 4.94244 3.29496H93.9064C94.3433 3.29496 94.7623 3.46853 95.0713 3.7775C95.3803 4.08646 95.5538 4.5055 95.5538 4.94244V13.1798H3.29496Z" fill="#D8E6AD"/>
<path d="M7.06761 7.06779C6.76415 7.38194 6.5931 7.80074 6.58984 8.23751C6.59245 8.45279 6.63722 8.66548 6.72164 8.86355C6.79726 9.06718 6.91517 9.25247 7.06761 9.40722C7.37784 9.71744 7.7986 9.89173 8.23732 9.89173C8.67605 9.89173 9.09681 9.71744 9.40703 9.40722C9.71726 9.09699 9.89154 8.67623 9.89154 8.23751C9.89154 7.79878 9.71726 7.37802 9.40703 7.06779C9.08843 6.77382 8.67083 6.6106 8.23732 6.6106C7.80382 6.6106 7.38621 6.77382 7.06761 7.06779Z" fill="#D8E6AD"/>
<path d="M13.6575 7.06767C13.3567 7.38357 13.1861 7.80125 13.1797 8.23738C13.1825 8.34788 13.1935 8.45801 13.2126 8.56688C13.2306 8.67011 13.2639 8.77008 13.3115 8.86343C13.3475 8.96843 13.3974 9.06816 13.4598 9.15997C13.5206 9.24629 13.5866 9.32882 13.6575 9.40709C13.9698 9.71338 14.3897 9.88495 14.8272 9.88495C15.2646 9.88495 15.6846 9.71338 15.9969 9.40709L16.1946 9.15997C16.257 9.06816 16.3068 8.96843 16.3428 8.86343C16.3904 8.77008 16.4238 8.67011 16.4417 8.56688C16.4608 8.45801 16.4718 8.34788 16.4746 8.23738C16.4766 7.91015 16.381 7.58977 16.2001 7.31708C16.0192 7.04439 15.7612 6.83175 15.4589 6.70626C15.1567 6.58078 14.824 6.54814 14.5031 6.61251C14.1823 6.67687 13.8879 6.83533 13.6575 7.06767V7.06767Z" fill="#D8E6AD"/>
<path d="M20.2474 7.06779C19.9411 7.3801 19.7695 7.80008 19.7695 8.23751C19.7695 8.67493 19.9411 9.09491 20.2474 9.40722C20.401 9.56082 20.5834 9.68267 20.7841 9.76581C20.9848 9.84894 21.1999 9.89173 21.4171 9.89173C21.6343 9.89173 21.8494 9.84894 22.0501 9.76581C22.2508 9.68267 22.4332 9.56082 22.5868 9.40722C22.7404 9.25361 22.8623 9.07125 22.9454 8.87055C23.0285 8.66985 23.0713 8.45474 23.0713 8.23751C23.0713 8.02027 23.0285 7.80516 22.9454 7.60446C22.8623 7.40376 22.7404 7.2214 22.5868 7.06779C22.2682 6.77382 21.8506 6.6106 21.4171 6.6106C20.9836 6.6106 20.566 6.77382 20.2474 7.06779V7.06779Z" fill="#D8E6AD"/>
<path d="M6.58984 19.7698H9.87585V92.2589H6.58984V19.7698Z" fill="#D8E6AD"/>
<path d="M29.592 19.7698H32.878V92.2589H29.592V19.7698Z" fill="#D8E6AD"/>
<path d="M6.58984 19.7698H32.9495V23.0647H6.58984V19.7698Z" fill="#D8E6AD"/>
<path d="M6.58984 88.9639H32.9495V92.2589H6.58984V88.9639Z" fill="#D8E6AD"/>
<path d="M36.5737 19.7698H39.7776V92.2589H36.5737V19.7698Z" fill="#D8E6AD"/>
<path d="M59.0008 19.7698H62.2046V92.2589H59.0008V19.7698Z" fill="#D8E6AD"/>
<path d="M36.5737 19.7698H62.2744V23.0647H36.5737V19.7698Z" fill="#D8E6AD"/>
<path d="M36.5737 88.9639H62.2744V92.2589H36.5737V88.9639Z" fill="#D8E6AD"/>
<path d="M65.8994 19.7698H69.1854V92.2589H65.8994V19.7698Z" fill="#D8E6AD"/>
<path d="M88.9015 19.7698H92.1875V92.2589H88.9015V19.7698Z" fill="#D8E6AD"/>
<path d="M65.8994 19.7698H92.2591V23.0647H65.8994V19.7698Z" fill="#D8E6AD"/>
<path d="M65.8994 88.9639H92.2591V92.2589H65.8994V88.9639Z" fill="#D8E6AD"/>
</svg>
