<svg width="106" height="117" viewBox="0 0 106 117" fill="none" xmlns="http://www.w3.org/2000/svg">
<path d="M0 86.3498C0 87.0097 0.358128 87.6205 0.938041 87.9404L51.8395 116.118C52.1122 116.269 52.4158 116.345 52.7194 116.345C53.0229 116.345 53.3265 116.269 53.5992 116.118L104.501 87.9404C105.081 87.6205 105.439 87.0097 105.439 86.3498C105.439 85.6899 105.081 85.079 104.501 84.7591L81.9222 72.261L104.501 59.7628C105.081 59.4429 105.439 58.8321 105.439 58.1722C105.439 57.5123 105.081 56.9033 104.501 56.5815L81.9241 44.0834L104.501 31.5853C105.081 31.2653 105.439 30.6545 105.439 29.9946C105.439 29.3347 105.081 28.7239 104.501 28.4039L53.5992 0.22633C53.052 -0.0754432 52.3849 -0.0754432 51.8377 0.22633L0.936223 28.4039C0.358128 28.7239 0 29.3347 0 29.9946C0 30.6545 0.358128 31.2653 0.938041 31.5853L23.5147 44.0834L0.938041 56.5815C0.358128 56.9033 0 57.5123 0 58.1722C0 58.8321 0.358128 59.4429 0.938041 59.7628L23.5165 72.261L0.938041 84.7591C0.358128 85.079 0 85.6899 0 86.3498V86.3498ZM48.9654 86.3498L27.2595 98.3552L18.2954 93.3942L39.994 81.3851L48.9654 86.3498ZM52.7194 112.449L43.7353 107.476L90.8882 81.3796L99.8686 86.3498L52.7194 112.449ZM87.1324 79.2999L39.9795 105.4L31.0117 100.437L53.5992 87.9423L78.1701 74.3407L87.1324 79.2999ZM27.2595 17.9891L36.2327 22.9538L27.265 27.9149L18.2936 22.9502L27.2595 17.9891ZM39.9795 10.9447L48.9545 15.9112L39.9867 20.8723L31.0135 15.9076L39.9795 10.9447ZM74.4143 15.904L65.432 20.876L56.4624 15.9131L65.4465 10.9411L74.4143 15.904ZM87.1324 22.9447L78.1519 27.9149L69.1842 22.9538L78.1683 17.9837L87.1324 22.9447ZM65.4302 34.9557L56.4624 29.9946L65.432 25.0317L74.3979 29.9946L65.4302 34.9557ZM78.1501 32.0743L87.1306 37.0444L78.1664 42.0055L69.1842 37.0353L78.1501 32.0743ZM61.6762 37.0353L52.7084 41.9982L43.7389 37.0353L52.7084 32.0725L61.6762 37.0353ZM61.6744 22.9538L52.7084 27.9149L43.7389 22.9538L52.7084 17.9909L61.6744 22.9538ZM39.9867 25.0317L48.9526 29.9946L39.9849 34.9557L31.019 29.9946L39.9867 25.0317ZM36.2309 37.0353L27.2577 42.0001L18.2936 37.039L27.265 32.0743L36.2309 37.0353ZM39.9849 39.1132L48.9545 44.0761L39.9795 49.0426L31.0117 44.0779L39.9849 39.1132ZM52.7084 46.1558L61.6907 51.1278L52.7194 56.0943L43.7353 51.1205L52.7084 46.1558ZM65.4465 49.0481L56.4624 44.0761L65.432 39.1132L74.4143 44.0852L65.4465 49.0481ZM90.8864 34.9647L81.9059 29.9946L90.8864 25.0244L99.8668 29.9946L90.8864 34.9647ZM52.7194 3.89487L61.6926 8.8614L52.7084 13.8334L43.7334 8.86867L52.7194 3.89487ZM14.5396 25.0299L23.511 29.9946L14.5396 34.9593L5.57007 29.9946L14.5396 25.0299ZM27.2686 46.1613L51.8395 59.7628C52.1122 59.9137 52.4158 59.9901 52.7194 59.9901C53.0229 59.9901 53.3265 59.9137 53.5992 59.7628L78.1701 46.1613L99.8686 58.1722L52.7194 84.2719L5.57007 58.1722L27.2686 46.1613ZM27.2686 74.3407L36.24 79.3054L14.5396 91.3145L5.57007 86.3498L27.2686 74.3407Z" fill="#ADD8E6"/>
</svg>
