<?xml version="1.0" encoding="iso-8859-1"?>
<!-- Uploaded to: SVG Repo, www.svgrepo.com, Generator: SVG Repo Mixer Tools -->
<svg version="1.1" id="Layer_1" xmlns="http://www.w3.org/2000/svg" xmlns:xlink="http://www.w3.org/1999/xlink" 
	 viewBox="0 0 512 512" xml:space="preserve">
<g>
	<circle style="fill:#A0EBFF;" cx="256" cy="256" r="256"/>
	<rect x="108.739" y="120.965" style="fill:#335872;" width="294.502" height="233.114"/>
	<rect x="256.973" y="120.965" style="fill:#153040;" width="146.299" height="233.114"/>
	<rect x="91.725" y="354.099" style="fill:#C3D63C;" width="328.55" height="36.956"/>
	<rect x="256" y="354.099" style="fill:#A5B81E;" width="164.301" height="36.956"/>
	<polygon style="fill:#FFFFFF;" points="181.944,268.247 153.114,268.247 164.593,213.939 193.418,213.939 191.826,221.553 
		171.796,221.553 168.678,236.227 187.331,236.227 185.805,243.768 167.081,243.768 163.517,260.705 183.537,260.705 	"/>
	<path style="fill:#FFFFFF;" d="M194.872,237.379v-6.646h34.765v6.646H194.872z M194.872,252.273v-6.687h34.765v6.687H194.872z"/>
	<path style="fill:#FFFFFF;" d="M262.405,226.417c5.448,0,8.591,2.913,9.436,8.73h0.297c1.859-2.872,3.973-5.043,6.339-6.518
		c2.36-1.475,4.818-2.212,7.368-2.212c3.292,0,5.801,0.947,7.521,2.842c1.72,1.894,2.586,4.562,2.586,8.008
		c0,1.582-0.271,3.825-0.819,6.723l-5.202,24.259h-8.73l5.315-24.96c0.471-2.35,0.707-3.999,0.707-4.941
		c0-3.195-1.495-4.792-4.495-4.792c-2.673,0-5.166,1.536-7.485,4.603c-2.314,3.072-4.004,7.148-5.069,12.221l-3.753,17.869h-8.73
		l5.309-24.96c0.42-2.033,0.635-3.604,0.635-4.716c0-3.343-1.449-5.012-4.347-5.012c-2.719,0-5.243,1.572-7.557,4.716
		c-2.314,3.144-4.029,7.332-5.146,12.554l-3.645,17.423h-8.76l8.76-41.088h6.84l-0.783,7.613h0.333
		C252.989,229.202,257.352,226.417,262.405,226.417z"/>
	<path style="fill:#FFFFFF;" d="M318.792,268.989c-4.859,0-8.622-1.311-11.29-3.937c-2.678-2.627-4.014-6.374-4.014-11.254
		c0-5.125,0.911-9.789,2.729-13.988s4.378-7.48,7.67-9.846c3.292-2.36,7.035-3.548,11.223-3.548c4.06,0,7.736,0.758,11.028,2.268
		l-2.601,6.835c-3.021-1.311-5.76-1.966-8.207-1.966c-3.717,0-6.815,1.9-9.288,5.699c-2.478,3.804-3.717,8.499-3.717,14.095
		c0,2.749,0.686,4.869,2.074,6.354s3.313,2.227,5.76,2.227c1.838,0,3.553-0.271,5.146-0.819c1.603-0.548,3.2-1.213,4.813-2.007
		v7.245C326.651,268.109,322.877,268.989,318.792,268.989z"/>
	<path style="fill:#FFFFFF;" d="M355.973,242.888h-21.775l1.147-5.545l10.465-9.446c3.584-3.195,5.376-5.801,5.376-7.823
		c0-0.707-0.189-1.239-0.563-1.592c-0.379-0.353-0.85-0.532-1.434-0.532c-1.736,0-3.763,1.06-6.093,3.185l-4.029-5.591
		c3.379-3.195,7.286-4.787,11.725-4.787c2.642,0,4.777,0.717,6.395,2.156c1.618,1.439,2.427,3.384,2.427,5.842
		c0,2.196-0.63,4.255-1.884,6.175c-1.254,1.925-3.41,4.198-6.456,6.825l-4.444,3.814v0.261h10.619L355.973,242.888z"/>
	<rect x="137.068" y="332.902" style="fill:#FFFFFF;" width="55.572" height="21.176"/>
	<rect x="137.068" y="343.501" style="fill:#E7FFFF;" width="55.572" height="10.588"/>
</g>
</svg>